<svg width="262" height="35" fill="none" xmlns="http://www.w3.org/2000/svg"><path d="M17.892 9.2l.068 3.052c1.06-2.324 3.454-3.227 5.607-3.227 1.261-.032 2.493.314 3.621 1.006l-.752 1.386c-.89-.554-1.88-.796-2.87-.796-3.144.031-5.57 2.598-5.57 5.722v9.984h-1.674V9.201h1.57zM28.929 17.797c0-5.444 3.826-8.91 8.575-8.91 4.75 0 8.576 3.466 8.576 8.91 0 5.446-3.827 8.773-8.576 8.773-4.748 0-8.575-3.327-8.575-8.773zm15.511 0c0-4.436-3.11-7.311-6.936-7.311-3.825 0-6.937 2.875-6.937 7.311 0 4.438 3.112 7.111 6.937 7.111 3.828 0 6.936-2.671 6.936-7.11zM74.954 26.329V16.065c0-3.294-2.19-5.614-5.398-5.614-3.212 0-5.436 2.424-5.436 5.72v10.16h-1.675V16.17c0-3.296-2.221-5.684-5.433-5.684-3.213 0-5.398 2.388-5.398 5.684v10.16H49.94V9.2h1.57l.036 2.842c1.162-2.252 3.313-3.188 5.502-3.188 2.566 0 5.261 1.178 6.252 4.229 1.025-2.809 3.66-4.23 6.255-4.23 4.133 0 7.071 2.946 7.071 7.211V26.33h-1.671zM94.222 26.329v-3.086c-1.3 2.36-3.657 3.329-6.014 3.36-4.51 0-7.62-2.805-7.62-7.555V9.165h1.672v9.843c0 3.89 2.36 5.969 6.017 5.931 3.487-.03 5.914-2.704 5.914-6.237V9.165h1.672v17.164h-1.641zM101.944 2.051v24.27h-1.675V2.051h1.675zM105.838 17.797c0-5.444 3.828-8.91 8.574-8.91 4.752 0 8.579 3.466 8.579 8.91 0 5.446-3.827 8.773-8.579 8.773-4.746.002-8.574-3.327-8.574-8.773zm15.512 0c0-4.436-3.106-7.311-6.938-7.311-3.827 0-6.936 2.875-6.936 7.311 0 4.438 3.109 7.111 6.936 7.111 3.832 0 6.938-2.671 6.938-7.11zM137.543 26.329v-9.15c0-2.258-1.158-4.305-3.451-4.305-2.257 0-3.588 2.046-3.588 4.305v9.15h-4.166V9.2h3.861l.307 2.082c.887-1.735 2.837-2.36 4.442-2.36 2.019 0 4.035.832 4.991 3.192 1.502-2.43 3.451-3.12 5.636-3.12 4.782 0 7.145 2.982 7.145 8.115v9.219h-4.171V17.11c0-2.26-.925-4.165-3.178-4.165-2.252 0-3.654 1.977-3.654 4.236v9.15h-4.174v-.002zM173.693 17.797c0 4.924-3.311 8.915-8.781 8.915-5.467 0-8.746-3.99-8.746-8.915 0-4.886 3.347-8.91 8.711-8.91 5.367.002 8.816 4.026 8.816 8.91zm-13.36 0c0 2.603 1.539 5.032 4.579 5.032 3.044 0 4.578-2.429 4.578-5.032 0-2.564-1.776-5.062-4.578-5.062-3.009.002-4.579 2.498-4.579 5.062zM180.832 9.235v8.946c0 2.6 1.401 4.576 4.068 4.576 2.565 0 4.303-2.187 4.303-4.785V9.235h4.136V26.36h-3.723l-.273-2.32c-1.743 1.735-3.351 2.563-5.706 2.563-4.035 0-6.969-3.084-6.969-8.39V9.235h4.164v-.001zM200.887 9.235l.308 1.977c1.298-2.117 3.042-2.427 4.751-2.427 1.741 0 3.417.691 4.337 1.626l-1.876 3.675c-.858-.726-1.641-1.106-3.009-1.106-2.186 0-4.203 1.176-4.203 4.33v9.017h-4.165V9.235h3.857zM225.214 9.235h4.001v17.094h-3.932l-.203-2.499c-.959 2.016-3.592 2.986-5.468 3.018-4.989.037-8.681-3.08-8.681-9.082 0-5.895 3.864-8.98 8.785-8.947 2.253 0 4.406 1.076 5.366 2.774l.132-2.358zm-10.148-4.61c.823-2.048 2.156-3.504 4.411-2.984 1.603.38 3.178 2.184 4.237.035l2.733 1.316c-.992 2.673-2.702 3.469-4.306 3.05-1.675-.483-3.146-2.53-4.479 0l-2.596-1.418zm.034 13.141c0 3.259 2.222 5.198 4.99 5.198 6.564 0 6.564-10.364 0-10.364-2.768 0-4.99 1.906-4.99 5.166zM249.474 17.797c0 4.924-3.311 8.915-8.779 8.915-5.47 0-8.749-3.99-8.749-8.915 0-4.886 3.346-8.91 8.71-8.91 5.367.002 8.818 4.026 8.818 8.91zm-13.363 0c0 2.603 1.541 5.032 4.584 5.032 3.042 0 4.575-2.429 4.575-5.032 0-2.564-1.777-5.062-4.575-5.062-3.012.002-4.584 2.498-4.584 5.062zM6.485 13.854c0 1.007-.16 1.768-.48 2.284-.319.516-.835.884-1.547 1.105.712.221 1.228.59 1.548 1.106.319.515.479 1.277.479 2.284v8.069c0 1.916.908 2.874 2.726 2.874h.921v2.91H8.511c-1.842 0-3.23-.466-4.163-1.4-.934-.909-1.4-2.26-1.4-4.053V20.56c0-1.228-.553-1.842-1.658-1.842H0v-2.948h1.29c1.105 0 1.658-.614 1.658-1.842V5.453c0-1.793.466-3.144 1.4-4.053C5.28.467 6.668 0 8.51 0h1.621v2.91h-.92c-1.819 0-2.727.959-2.727 2.875v8.069zM262 15.77v2.947h-1.253c-1.08 0-1.621.614-1.621 1.842v8.474c0 1.793-.479 3.144-1.437 4.053-.933.934-2.321 1.4-4.163 1.4h-1.621v-2.91h.884c1.867 0 2.8-.958 2.8-2.874v-8.07c0-1.03.147-1.792.442-2.284.32-.515.835-.884 1.548-1.105-.713-.22-1.228-.577-1.548-1.068-.295-.516-.442-1.29-.442-2.322V5.786c0-1.916-.933-2.874-2.8-2.874h-.884V0h1.621c1.842 0 3.23.467 4.163 1.4.958.909 1.437 2.26 1.437 4.053v8.474c0 1.228.541 1.842 1.621 1.842H262z" fill="#fff"/></svg>
