<svg width="32" height="20" viewBox="0 0 32 20" fill="none" xmlns="http://www.w3.org/2000/svg">
<path d="M3.45085 8.09438C3.45085 8.63031 3.36589 9.03552 3.19596 9.31002C3.02603 9.58452 2.75153 9.78059 2.37246 9.89823C2.75153 10.0159 3.02603 10.2119 3.19596 10.4864C3.36589 10.7609 3.45085 11.1662 3.45085 11.7021V15.996C3.45085 17.0156 3.93449 17.5254 4.90178 17.5254H5.39195V19.0744H4.52924C3.54889 19.0744 2.81035 18.826 2.31364 18.3293C1.81693 17.8456 1.56857 17.1267 1.56857 16.1725V11.6629C1.56857 11.0093 1.27446 10.6825 0.686249 10.6825H0V9.11395H0.686249C1.27446 9.11395 1.56857 8.78716 1.56857 8.13359V3.62396C1.56857 2.66975 1.81693 1.95082 2.31364 1.46718C2.81035 0.970464 3.54889 0.722107 4.52924 0.722107H5.39195V2.27107H4.90178C3.93449 2.27107 3.45085 2.78085 3.45085 3.80042V8.09438Z" fill="#52525B"/>
<path d="M28.5491 8.09438C28.5491 8.63031 28.6341 9.03552 28.804 9.31002C28.974 9.58452 29.2485 9.78059 29.6275 9.89823C29.2485 10.0159 28.974 10.2119 28.804 10.4864C28.6341 10.7609 28.5491 11.1662 28.5491 11.7021V15.996C28.5491 17.0156 28.0655 17.5254 27.0982 17.5254H26.608V19.0744H27.4708C28.4511 19.0744 29.1896 18.826 29.6864 18.3293C30.1831 17.8456 30.4314 17.1267 30.4314 16.1725V11.6629C30.4314 11.0093 30.7255 10.6825 31.3138 10.6825H32V9.11395H31.3138C30.7255 9.11395 30.4314 8.78716 30.4314 8.13359V3.62396C30.4314 2.66975 30.1831 1.95082 29.6864 1.46718C29.1896 0.970464 28.4511 0.722107 27.4708 0.722107H26.608V2.27107H27.0982C28.0655 2.27107 28.5491 2.78085 28.5491 3.80042V8.09438Z" fill="#52525B"/>
<path d="M23.7849 6.63641C23.8192 6.66919 23.8489 6.70196 23.8789 6.73857C23.8959 6.75895 23.9132 6.77932 23.9302 6.80383C23.9559 6.83247 23.9815 6.86111 24.0029 6.88975C24.0415 6.9426 24.0842 6.99161 24.1225 7.04476C24.1612 7.10204 24.1995 7.15489 24.2335 7.21217C24.2722 7.26532 24.3062 7.31817 24.3362 7.37545C24.3702 7.4283 24.4045 7.48559 24.4345 7.54287C24.4686 7.59985 24.4986 7.65713 24.5285 7.71825C24.5585 7.77553 24.5842 7.83665 24.6099 7.89393C24.6269 7.93055 24.6439 7.96745 24.6569 8.00407C24.6609 8.0082 24.6609 8.01233 24.6652 8.01233C24.6782 8.04895 24.6909 8.08172 24.7039 8.1142C24.7169 8.15111 24.7295 8.18772 24.7422 8.22463C24.7592 8.26537 24.7722 8.30198 24.7809 8.33889C24.8362 8.50631 24.8832 8.68169 24.9176 8.85708C24.9305 8.9182 24.9432 8.97548 24.9519 9.0366V9.04073C24.9602 9.09801 24.9689 9.15913 24.9775 9.21612C24.9859 9.27753 24.9902 9.33865 24.9945 9.40007C25.0032 9.48156 25.0072 9.56334 25.0072 9.64484C25.0116 9.68972 25.0116 9.72633 25.0116 9.7715V14.5583H22.5028V9.72987C22.4985 9.66875 22.4985 9.60763 22.4898 9.54622C22.4855 9.48923 22.4768 9.42782 22.4685 9.37083C22.4555 9.28905 22.4342 9.21169 22.4128 9.13817C22.3828 9.0239 22.3401 8.91761 22.2931 8.8119C22.2802 8.78326 22.2675 8.75876 22.2545 8.73425C22.2288 8.6811 22.2032 8.62796 22.1691 8.57924C22.1435 8.53022 22.1095 8.48121 22.0751 8.4322C22.0578 8.41182 22.0408 8.38732 22.0238 8.36281C21.9895 8.31793 21.9511 8.27305 21.9128 8.22787C21.8615 8.17089 21.8101 8.11361 21.7505 8.06076C21.3018 7.63617 20.6777 7.37516 19.9937 7.37516C18.609 7.37516 17.485 8.4443 17.485 9.77062V14.5574H14.9765V9.77091C14.9765 9.27724 14.8182 8.81988 14.5532 8.44046L14.9765 7.97926L16.1646 6.67745L16.2286 6.60393L14.9765 7.65684L14.3482 8.18742C13.8908 7.68932 13.2155 7.37545 12.4678 7.37545C11.0827 7.37545 9.95901 8.4446 9.95901 9.77091V14.5577H7.45025V4.9797H9.95901V5.62042C10.0317 5.57937 10.1087 5.53863 10.1813 5.50585C10.2154 5.48548 10.2497 5.46924 10.284 5.45684C10.3267 5.43647 10.365 5.42023 10.408 5.39985H10.412C10.4464 5.38361 10.4807 5.37121 10.5147 5.35497C10.5533 5.33844 10.5874 5.32633 10.6257 5.31009C10.6597 5.29769 10.694 5.28559 10.7284 5.27319C10.848 5.23244 10.972 5.19583 11.0914 5.15892C11.1344 5.15065 11.1727 5.13855 11.2114 5.13028C11.2541 5.11817 11.2927 5.10991 11.3354 5.10193L11.455 5.07743C11.5361 5.06089 11.6217 5.04465 11.703 5.03639C11.827 5.01631 11.9551 4.99977 12.0834 4.9918C12.1261 4.98737 12.1687 4.98737 12.2117 4.98353C12.2501 4.98353 12.2844 4.98353 12.3271 4.9794H12.6094C12.6477 4.98353 12.6864 4.98353 12.7247 4.98353C12.7674 4.98737 12.8101 4.98737 12.8531 4.9918C12.9814 4.99977 13.1051 5.01631 13.2334 5.03639C13.3574 5.05292 13.4814 5.07329 13.6008 5.10193C13.6438 5.10991 13.6821 5.11817 13.7208 5.13028C13.7634 5.13855 13.8021 5.15065 13.8404 5.15892C13.9218 5.18343 13.9988 5.2038 14.0754 5.23244C14.1141 5.24455 14.1568 5.25695 14.1951 5.26905C14.2338 5.28145 14.2721 5.29769 14.3061 5.31009C14.3448 5.32633 14.3831 5.33844 14.4215 5.35497C14.4601 5.37121 14.4941 5.38745 14.5328 5.40399C14.5711 5.41639 14.6055 5.43647 14.6438 5.453C14.6781 5.46924 14.7165 5.48548 14.7508 5.50585C14.7894 5.52239 14.8235 5.53863 14.8575 5.55487C14.8961 5.57524 14.9301 5.59591 14.9645 5.61215C14.9688 5.61628 14.9731 5.61628 14.9775 5.62042C15.0071 5.63665 15.0371 5.65289 15.0715 5.67327C15.1055 5.69364 15.1398 5.71431 15.1741 5.73468C15.2081 5.75505 15.2381 5.77543 15.2725 5.7958C15.3065 5.82031 15.3408 5.84068 15.3708 5.86105C15.4048 5.88556 15.4391 5.90593 15.4691 5.93044C15.5031 5.95495 15.5331 5.97532 15.5675 5.99983C15.5971 6.02433 15.6271 6.04884 15.6615 6.07335C15.7128 6.11439 15.7641 6.15484 15.8155 6.20001C15.8451 6.22452 15.8751 6.25316 15.9051 6.28151C15.9138 6.28564 15.9221 6.29391 15.9308 6.30217L15.9991 6.36743C16.0418 6.40434 16.0805 6.44508 16.1188 6.48583C16.1575 6.52274 16.1915 6.55935 16.2258 6.59596C16.2298 6.60009 16.2298 6.60009 16.2298 6.60009H16.2345C16.2771 6.55521 16.3198 6.51034 16.3625 6.46546C16.3668 6.46132 16.3668 6.46132 16.3711 6.45719C16.4095 6.41644 16.4522 6.3754 16.4951 6.33879L16.5335 6.30217C16.5762 6.26113 16.6191 6.22452 16.6618 6.18761C16.7088 6.151 16.7558 6.11025 16.8028 6.07335C16.8671 6.02433 16.9268 5.97532 16.9952 5.93044C17.0381 5.89796 17.0808 5.86932 17.1235 5.84068C17.2432 5.76303 17.3625 5.6898 17.4865 5.62042C17.6022 5.55487 17.7218 5.49375 17.8458 5.4406C17.8758 5.42849 17.9015 5.41609 17.9312 5.40399C17.9698 5.38745 18.0039 5.37121 18.0425 5.35497C18.0809 5.33844 18.1195 5.32633 18.1579 5.31009C18.1922 5.29769 18.2305 5.28145 18.2689 5.26905C18.3075 5.25695 18.3459 5.24455 18.3842 5.23244C18.4612 5.2038 18.5422 5.18343 18.6235 5.15892C18.6619 5.15065 18.7005 5.13855 18.7435 5.13028C18.7819 5.11817 18.8202 5.10991 18.8632 5.10193C18.9826 5.07329 19.1066 5.05292 19.2306 5.03639C19.3546 5.01631 19.4829 4.99977 19.6066 4.9918C19.6536 4.98737 19.6922 4.98737 19.7349 4.98353C19.7733 4.98353 19.8119 4.98353 19.8546 4.9794H20.1369C20.1752 4.98353 20.2139 4.98353 20.2522 4.98353C20.2949 4.98737 20.3379 4.98737 20.3806 4.9918C20.5089 4.99977 20.6369 5.01631 20.7609 5.03639C20.8849 5.05292 21.0089 5.07329 21.1283 5.10193C21.171 5.10991 21.2096 5.11817 21.248 5.13028C21.2909 5.13855 21.3293 5.15065 21.3676 5.15892C21.449 5.18343 21.526 5.2038 21.6029 5.23244C21.6413 5.24455 21.6843 5.25695 21.7226 5.26905C21.7569 5.28145 21.7953 5.29769 21.8339 5.31009C21.8723 5.32633 21.9106 5.33844 21.9493 5.35497C21.9833 5.37121 22.022 5.38745 22.0603 5.40399C22.0946 5.41639 22.133 5.43263 22.1673 5.44887L22.1695 5.4533C22.2081 5.46954 22.2421 5.48578 22.2761 5.50615C22.3531 5.53892 22.4258 5.57967 22.4985 5.62071H22.5028C22.5328 5.63695 22.5628 5.65319 22.5968 5.67356C22.6225 5.6901 22.6481 5.70634 22.6781 5.72257C22.7508 5.76745 22.8235 5.81233 22.8961 5.86135C22.9305 5.88586 22.9648 5.90623 22.9945 5.93074C23.0288 5.95524 23.0588 5.97562 23.0888 6.00012C23.1828 6.06951 23.2725 6.14303 23.3581 6.22068C23.3665 6.22482 23.3791 6.23308 23.3878 6.24519L23.7215 6.56348C23.7298 6.57588 23.7385 6.58415 23.7471 6.59212L23.7685 6.61249C23.7719 6.62017 23.7805 6.62844 23.7849 6.63641Z" fill="#52525B"/>
</svg>
