<?xml version="1.0" encoding="utf-8"?>
<!-- Generator: Adobe Illustrator 16.0.0, SVG Export Plug-In . SVG Version: 6.00 Build 0)  -->
<!DOCTYPE svg PUBLIC "-//W3C//DTD SVG 1.1//EN" "http://www.w3.org/Graphics/SVG/1.1/DTD/svg11.dtd">
<svg version="1.1" xmlns="http://www.w3.org/2000/svg" xmlns:xlink="http://www.w3.org/1999/xlink" x="0px" y="0px" width="75.5px"
	 height="74.91px" viewBox="0 0 75.5 74.91" enable-background="new 0 0 75.5 74.91" xml:space="preserve">
<g id="Arte">
	<g>
		<path fill="#55ADE3" d="M14.74,1.295c-7.2,0-13.05,5.79-13.14,12.98v59.34h59.16c7.26,0,13.14-5.89,13.14-13.15V1.295H14.74z
			 M57.55,28.855c0.08,0.09,0.16,0.18,0.24,0.28c0.05,0.06,0.1,0.11,0.14,0.18c0.07,0.08,0.13,0.15,0.19,0.24
			c0.1,0.14,0.21,0.28,0.31,0.43c0.1,0.14,0.2,0.3,0.3,0.45c0.09,0.14,0.18,0.29,0.27,0.44c0.09,0.16,0.17,0.31,0.25,0.47
			c0.09,0.16,0.17,0.32,0.24,0.48c0.08,0.16,0.15,0.32,0.22,0.49c0.04,0.09,0.09,0.19,0.13,0.29c0,0.01,0,0.02,0.01,0.03
			c0.03,0.09,0.07,0.18,0.1,0.27c0.04,0.11,0.08,0.21,0.11,0.31c0.04,0.1,0.07,0.21,0.1,0.31c0.14,0.47,0.26,0.94,0.36,1.43
			c0.03,0.16,0.06,0.32,0.08,0.49c0.01,0,0.01,0,0.01,0.01c0.02,0.16,0.04,0.32,0.06,0.48c0.02,0.17,0.04,0.33,0.05,0.5
			c0.02,0.23,0.03,0.45,0.03,0.68c0.01,0.11,0.01,0.22,0.01,0.34v13.15h-6.58v-13.04c0.01-0.04,0.01-0.07,0.01-0.11
			s0-0.08-0.01-0.11c0-0.17-0.01-0.34-0.03-0.5c-0.01-0.17-0.03-0.33-0.06-0.49c-0.03-0.21-0.08-0.43-0.14-0.63
			c-0.08-0.31-0.19-0.61-0.31-0.9c-0.04-0.07-0.07-0.15-0.1-0.22c-0.07-0.14-0.14-0.28-0.22-0.42c-0.08-0.13-0.16-0.27-0.25-0.4
			c-0.05-0.06-0.09-0.13-0.14-0.19c-0.09-0.13-0.19-0.25-0.29-0.37c-0.13-0.16-0.27-0.31-0.42-0.46c-1.18-1.17-2.81-1.89-4.61-1.89
			c-3.63,0-6.57,2.95-6.57,6.58v13.15h-6.58v-13.15c0-1.35-0.41-2.6-1.1-3.65l1.1-1.27l3.11-3.57l0.17-0.2l-3.28,2.9l-1.64,1.44
			c-1.2-1.36-2.96-2.23-4.93-2.23c-3.63,0-6.57,2.95-6.57,6.58v13.15h-6.58v-26.3h6.58v1.76c0.19-0.11,0.38-0.22,0.58-0.32
			c0.09-0.04,0.18-0.09,0.27-0.13c0.1-0.05,0.21-0.1,0.32-0.15c0.09-0.04,0.19-0.08,0.28-0.12c0.1-0.05,0.2-0.09,0.3-0.13
			c0.08-0.03,0.17-0.06,0.26-0.1c0.32-0.11,0.63-0.22,0.96-0.31c0.1-0.03,0.21-0.06,0.31-0.08c0.11-0.03,0.21-0.06,0.32-0.08
			l0.32-0.07c0.21-0.04,0.43-0.08,0.65-0.11c0.32-0.06,0.65-0.1,0.99-0.12c0.11-0.01,0.22-0.01,0.33-0.02c0.1,0,0.2-0.01,0.31-0.01
			c0.07,0,0.15,0,0.22-0.01h0.3c0.07,0.01,0.15,0.01,0.22,0.01c0.1,0,0.2,0.01,0.31,0.01c0.11,0.01,0.22,0.01,0.33,0.02
			c0.33,0.02,0.66,0.06,0.99,0.12c0.33,0.04,0.65,0.1,0.97,0.18c0.11,0.02,0.21,0.05,0.31,0.08c0.11,0.02,0.22,0.05,0.32,0.08
			c0.21,0.06,0.41,0.13,0.62,0.19c0.1,0.04,0.2,0.07,0.3,0.11c0.1,0.04,0.2,0.07,0.3,0.11c0.1,0.04,0.2,0.08,0.3,0.13
			c0.09,0.04,0.19,0.08,0.29,0.12c0.1,0.05,0.19,0.09,0.29,0.14c0.1,0.04,0.19,0.09,0.28,0.14c0.1,0.05,0.19,0.1,0.29,0.15
			c0.09,0.05,0.18,0.1,0.27,0.15c0.01,0.01,0.02,0.01,0.03,0.02c0.09,0.05,0.17,0.1,0.25,0.15c0.09,0.05,0.18,0.11,0.27,0.16
			c0.08,0.06,0.17,0.12,0.26,0.18c0.09,0.06,0.17,0.12,0.26,0.18c0.09,0.06,0.17,0.12,0.25,0.18c0.09,0.07,0.17,0.13,0.25,0.2
			c0.09,0.06,0.17,0.13,0.25,0.19c0.14,0.12,0.27,0.23,0.41,0.35c0.08,0.07,0.16,0.15,0.24,0.22l0.06,0.06
			c0.06,0.06,0.13,0.12,0.19,0.19c0.1,0.1,0.2,0.21,0.31,0.31c0.09,0.1,0.19,0.21,0.28,0.31c0,0.01,0.01,0.01,0.01,0.02
			c0.11-0.13,0.23-0.26,0.34-0.38c0.01-0.01,0.02-0.01,0.02-0.02c0.11-0.11,0.22-0.22,0.33-0.33c0.03-0.03,0.07-0.07,0.1-0.1
			c0.11-0.1,0.22-0.21,0.34-0.31c0.12-0.11,0.24-0.21,0.37-0.32c0.16-0.13,0.33-0.26,0.49-0.39c0.12-0.08,0.23-0.17,0.35-0.25
			c0.31-0.21,0.62-0.41,0.95-0.6c0.3-0.17,0.62-0.34,0.94-0.49c0.07-0.04,0.15-0.07,0.22-0.11c0.1-0.04,0.2-0.08,0.29-0.12
			c0.1-0.05,0.2-0.09,0.3-0.13c0.1-0.04,0.2-0.07,0.3-0.11s0.2-0.07,0.3-0.11c0.21-0.06,0.41-0.13,0.62-0.19
			c0.11-0.03,0.21-0.06,0.32-0.08c0.1-0.03,0.2-0.06,0.31-0.08c0.32-0.08,0.64-0.14,0.97-0.18c0.33-0.06,0.66-0.1,0.99-0.12
			c0.11-0.01,0.22-0.01,0.33-0.02c0.1,0,0.2-0.01,0.31-0.01c0.07,0,0.15,0,0.22-0.01h0.3c0.08,0.01,0.15,0.01,0.22,0.01
			c0.1,0,0.21,0.01,0.31,0.01c0.11,0.01,0.22,0.01,0.33,0.02c0.34,0.02,0.67,0.06,0.99,0.12c0.33,0.04,0.65,0.1,0.97,0.18
			c0.11,0.02,0.21,0.05,0.32,0.08c0.1,0.02,0.21,0.05,0.31,0.08c0.21,0.06,0.41,0.13,0.62,0.19c0.1,0.04,0.2,0.07,0.3,0.11
			s0.2,0.07,0.3,0.11c0.1,0.04,0.2,0.08,0.3,0.13c0.1,0.04,0.19,0.08,0.29,0.12c0.09,0.05,0.19,0.09,0.28,0.13
			c0.01,0.01,0.01,0.01,0.01,0.01c0.1,0.05,0.19,0.09,0.29,0.14c0.19,0.1,0.39,0.21,0.58,0.32c0.09,0.05,0.17,0.1,0.25,0.15
			c0.07,0.04,0.14,0.08,0.21,0.13c0.2,0.12,0.39,0.25,0.58,0.39c0.09,0.06,0.17,0.12,0.26,0.18c0.08,0.07,0.17,0.13,0.25,0.2
			c0.24,0.19,0.48,0.39,0.71,0.6c0.33,0.29,0.65,0.61,0.94,0.94l0.07,0.08C57.48,28.775,57.52,28.815,57.55,28.855z"/>
		<path opacity="0.11" fill="#002E82" d="M21.9,25.745c-0.2,0.1-0.39,0.21-0.58,0.32v-1.76l1.17,1.16c-0.11,0.05-0.22,0.1-0.32,0.15
			C22.08,25.655,21.99,25.705,21.9,25.745z"/>
		<path opacity="0.11" fill="#002E82" d="M73.9,45.185v15.28c0,7.26-5.88,13.15-13.14,13.15H37.75l-23.01-23.01h6.58v-13.15
			c0-3.63,2.94-6.58,6.57-6.58c1.97,0,3.73,0.87,4.93,2.23l1.64-1.44l3.28-2.9l-0.17,0.2l-3.11,3.57l-1.1,1.27
			c0.69,1.05,1.1,2.3,1.1,3.65v13.15h6.58v-13.15c0-3.63,2.94-6.58,6.57-6.58c1.8,0,3.43,0.72,4.61,1.89
			c0.15,0.15,0.29,0.3,0.42,0.46c0.1,0.12,0.2,0.24,0.29,0.37c0.05,0.06,0.09,0.13,0.14,0.19c0.09,0.13,0.17,0.27,0.25,0.4
			c0.08,0.14,0.15,0.28,0.22,0.42c0.03,0.07,0.06,0.15,0.1,0.22c0.12,0.29,0.23,0.59,0.31,0.9c0.06,0.2,0.11,0.42,0.14,0.63
			c0.03,0.16,0.05,0.32,0.06,0.49c0.02,0.16,0.03,0.33,0.03,0.5c0.01,0.03,0.01,0.07,0.01,0.11s0,0.07-0.01,0.11v13.04h6.58v-13.15
			c0-0.12,0-0.23-0.01-0.34c0-0.23-0.01-0.45-0.03-0.68c-0.01-0.17-0.03-0.33-0.05-0.5c-0.02-0.16-0.04-0.32-0.06-0.48
			c0-0.01,0-0.01-0.01-0.01c-0.02-0.17-0.05-0.33-0.08-0.49c-0.1-0.49-0.22-0.96-0.36-1.43c-0.03-0.1-0.06-0.21-0.1-0.31
			c-0.03-0.1-0.07-0.2-0.11-0.31c-0.03-0.09-0.07-0.18-0.1-0.27c-0.01-0.01-0.01-0.02-0.01-0.03c-0.04-0.1-0.09-0.2-0.13-0.29
			c-0.07-0.17-0.14-0.33-0.22-0.49c-0.07-0.16-0.15-0.32-0.24-0.48c-0.08-0.16-0.16-0.31-0.25-0.47c-0.09-0.15-0.18-0.3-0.27-0.44
			c-0.1-0.15-0.2-0.31-0.3-0.45c-0.1-0.15-0.21-0.29-0.31-0.43c-0.06-0.09-0.12-0.16-0.19-0.24c-0.04-0.07-0.09-0.12-0.14-0.18
			c-0.08-0.1-0.16-0.19-0.24-0.28c-0.03-0.04-0.07-0.08-0.1-0.12L73.9,45.185z"/>
	</g>
</g>
<g id="Camada_3">
</g>
</svg>
