<?xml version="1.0" encoding="utf-8"?>
<!-- Generator: Adobe Illustrator 16.0.0, SVG Export Plug-In . SVG Version: 6.00 Build 0)  -->
<!DOCTYPE svg PUBLIC "-//W3C//DTD SVG 1.1//EN" "http://www.w3.org/Graphics/SVG/1.1/DTD/svg11.dtd">
<svg version="1.1" id="Camada_1" xmlns="http://www.w3.org/2000/svg" xmlns:xlink="http://www.w3.org/1999/xlink" x="0px" y="0px"
	 width="262.809px" height="94.75px" viewBox="0 0 262.809 94.75" enable-background="new 0 0 262.809 94.75" xml:space="preserve">
<g>
	<g>
		<path fill="#FFFFFF" d="M19.057,2.993c-8.887,0-16.115,7.146-16.226,16.019v73.226h73.018c8.97,0,16.226-7.271,16.226-16.227
			V2.993H19.057z M71.882,37.007c0.111,0.111,0.207,0.222,0.304,0.346c0.055,0.069,0.111,0.138,0.166,0.221
			c0.083,0.097,0.166,0.194,0.235,0.291c0.125,0.179,0.263,0.345,0.387,0.525c0.125,0.194,0.249,0.373,0.359,0.567
			c0.125,0.18,0.235,0.359,0.332,0.553c0.11,0.179,0.221,0.373,0.318,0.567c0.11,0.193,0.207,0.387,0.304,0.594
			c0.097,0.194,0.18,0.401,0.263,0.595c0.055,0.124,0.11,0.249,0.152,0.373c0.013,0.014,0.013,0.028,0.027,0.028
			c0.042,0.124,0.083,0.235,0.125,0.345c0.042,0.125,0.083,0.249,0.124,0.374c0.055,0.138,0.097,0.262,0.125,0.387
			c0.179,0.567,0.331,1.161,0.442,1.755c0.042,0.207,0.083,0.401,0.111,0.608v0.014c0.027,0.194,0.055,0.401,0.083,0.594
			c0.027,0.208,0.041,0.415,0.055,0.623c0.028,0.276,0.041,0.553,0.041,0.829c0.014,0.152,0.014,0.276,0.014,0.429v16.212h-8.113
			V47.484c-0.014-0.207-0.014-0.414-0.042-0.622c-0.014-0.193-0.042-0.401-0.069-0.594c-0.042-0.277-0.111-0.539-0.18-0.788
			c-0.097-0.387-0.235-0.747-0.387-1.105c-0.042-0.097-0.083-0.18-0.125-0.263c-0.083-0.18-0.166-0.36-0.276-0.525
			c-0.083-0.166-0.193-0.332-0.304-0.498c-0.056-0.069-0.111-0.152-0.166-0.235c-0.111-0.152-0.235-0.304-0.359-0.457
			c-0.166-0.193-0.332-0.387-0.525-0.566c-1.451-1.438-3.469-2.322-5.681-2.322c-4.478,0-8.113,3.621-8.113,8.113v16.212h-8.112
			V47.623c0-1.672-0.512-3.221-1.369-4.506l1.369-1.562l3.842-4.409l0.207-0.249l-4.049,3.566l-2.032,1.797
			c-1.479-1.687-3.663-2.75-6.081-2.75c-4.479,0-8.113,3.621-8.113,8.113v16.212h-8.113V31.396h8.113v2.17
			c0.235-0.139,0.484-0.277,0.719-0.388c0.11-0.069,0.221-0.124,0.332-0.166c0.138-0.069,0.262-0.124,0.401-0.193h0.013
			c0.111-0.055,0.222-0.097,0.332-0.152c0.125-0.056,0.235-0.097,0.359-0.152c0.11-0.042,0.221-0.083,0.332-0.125
			c0.387-0.138,0.788-0.262,1.174-0.387c0.139-0.028,0.263-0.069,0.388-0.097c0.138-0.041,0.263-0.069,0.401-0.096l0.387-0.083
			c0.262-0.056,0.539-0.111,0.802-0.139c0.401-0.068,0.815-0.124,1.23-0.151c0.138-0.015,0.276-0.015,0.415-0.028
			c0.124,0,0.235,0,0.373-0.014h0.913c0.124,0.014,0.249,0.014,0.373,0.014c0.138,0.013,0.276,0.013,0.415,0.028
			c0.415,0.027,0.815,0.083,1.23,0.151c0.401,0.056,0.802,0.125,1.188,0.222c0.139,0.027,0.263,0.055,0.388,0.096
			c0.138,0.028,0.263,0.069,0.387,0.097c0.263,0.083,0.512,0.152,0.76,0.249c0.125,0.041,0.263,0.083,0.387,0.124
			c0.125,0.042,0.249,0.097,0.359,0.139c0.125,0.055,0.249,0.096,0.373,0.152c0.125,0.055,0.235,0.11,0.36,0.166
			c0.124,0.042,0.235,0.11,0.359,0.166c0.111,0.055,0.235,0.11,0.346,0.179c0.125,0.056,0.235,0.111,0.345,0.166
			c0.125,0.069,0.235,0.139,0.346,0.194c0.014,0.014,0.028,0.014,0.042,0.028c0.096,0.055,0.193,0.11,0.304,0.179
			c0.11,0.069,0.221,0.139,0.332,0.208c0.11,0.069,0.207,0.138,0.318,0.207c0.11,0.083,0.221,0.152,0.318,0.221
			c0.11,0.083,0.221,0.152,0.318,0.235c0.11,0.083,0.207,0.152,0.318,0.235c0.096,0.083,0.193,0.166,0.304,0.249
			c0.166,0.139,0.332,0.276,0.498,0.429c0.096,0.083,0.193,0.18,0.29,0.276c0.028,0.014,0.055,0.042,0.083,0.07l0.221,0.221
			c0.138,0.125,0.263,0.263,0.387,0.401c0.125,0.125,0.235,0.249,0.346,0.373c0.013,0.014,0.013,0.014,0.013,0.014h0.015
			c0.138-0.152,0.276-0.304,0.414-0.456c0.014-0.014,0.014-0.014,0.028-0.028c0.124-0.138,0.262-0.277,0.401-0.401l0.124-0.124
			c0.138-0.139,0.277-0.263,0.415-0.388c0.152-0.124,0.304-0.262,0.456-0.387c0.208-0.166,0.401-0.332,0.622-0.484
			c0.139-0.11,0.277-0.207,0.415-0.304c0.387-0.263,0.773-0.511,1.174-0.746c0.374-0.222,0.761-0.429,1.162-0.609
			c0.097-0.041,0.18-0.083,0.276-0.124c0.125-0.056,0.235-0.111,0.36-0.166c0.124-0.056,0.249-0.097,0.373-0.152
			c0.111-0.042,0.235-0.097,0.359-0.139c0.125-0.041,0.249-0.083,0.373-0.124c0.249-0.097,0.511-0.166,0.774-0.249
			c0.124-0.028,0.249-0.069,0.388-0.097c0.124-0.041,0.248-0.069,0.387-0.096c0.386-0.097,0.787-0.166,1.188-0.222
			c0.401-0.068,0.816-0.124,1.216-0.151c0.152-0.015,0.277-0.015,0.415-0.028c0.124,0,0.249,0,0.387-0.014h0.913
			c0.124,0.014,0.249,0.014,0.373,0.014c0.138,0.013,0.277,0.013,0.415,0.028c0.415,0.027,0.829,0.083,1.23,0.151
			c0.401,0.056,0.802,0.125,1.188,0.222c0.138,0.027,0.263,0.055,0.387,0.096c0.139,0.028,0.263,0.069,0.387,0.097
			c0.263,0.083,0.512,0.152,0.761,0.249c0.124,0.041,0.263,0.083,0.387,0.124c0.111,0.042,0.235,0.097,0.36,0.139
			c0.124,0.055,0.248,0.096,0.373,0.152c0.11,0.055,0.235,0.11,0.359,0.166c0.111,0.042,0.235,0.097,0.346,0.152L66.658,33
			c0.125,0.055,0.235,0.11,0.345,0.179c0.249,0.111,0.484,0.249,0.719,0.388h0.014c0.097,0.055,0.194,0.11,0.304,0.179
			c0.083,0.056,0.166,0.111,0.263,0.166c0.235,0.152,0.47,0.304,0.705,0.47c0.111,0.083,0.222,0.152,0.318,0.235
			c0.111,0.083,0.208,0.152,0.305,0.235c0.304,0.235,0.594,0.484,0.871,0.747c0.027,0.014,0.068,0.042,0.096,0.083l1.079,1.078
			c0.027,0.042,0.055,0.07,0.083,0.097l0.069,0.069C71.84,36.952,71.868,36.98,71.882,37.007z"/>
		<path fill="#F3F3F5" d="M27.889,33.179c-0.235,0.111-0.484,0.249-0.719,0.388v-2.17l1.452,1.424
			c-0.139,0.069-0.263,0.124-0.401,0.193C28.11,33.055,28,33.11,27.889,33.179z"/>
		<path fill="#F3F3F5" d="M92.075,57.159v18.853c0,8.956-7.256,16.227-16.226,16.227H47.446L19.057,63.835h8.113V47.623
			c0-4.492,3.635-8.113,8.113-8.113c2.418,0,4.603,1.064,6.081,2.75l2.032-1.797l4.049-3.566l-0.207,0.249l-3.842,4.409
			l-1.369,1.562c0.857,1.286,1.369,2.834,1.369,4.506v16.212h8.112V47.623c0-4.492,3.636-8.113,8.113-8.113
			c2.212,0,4.229,0.885,5.681,2.322c0.193,0.179,0.359,0.373,0.525,0.566c0.125,0.153,0.249,0.305,0.359,0.457
			c0.055,0.083,0.11,0.166,0.166,0.235c0.11,0.166,0.221,0.332,0.304,0.498c0.11,0.165,0.193,0.345,0.276,0.525
			c0.042,0.083,0.083,0.166,0.125,0.263c0.152,0.359,0.29,0.719,0.387,1.105c0.069,0.249,0.138,0.511,0.18,0.788
			c0.027,0.193,0.055,0.401,0.069,0.594c0.027,0.208,0.027,0.415,0.042,0.622v16.351h8.113V47.623c0-0.153,0-0.277-0.014-0.429
			c0-0.276-0.013-0.553-0.041-0.829c-0.014-0.208-0.028-0.415-0.055-0.623c-0.028-0.193-0.056-0.4-0.083-0.594v-0.014
			c-0.028-0.207-0.069-0.401-0.111-0.608c-0.111-0.594-0.263-1.188-0.442-1.755c-0.028-0.125-0.07-0.249-0.125-0.387
			c-0.041-0.125-0.083-0.249-0.124-0.374c-0.042-0.11-0.083-0.221-0.125-0.345c-0.014,0-0.014-0.014-0.027-0.028
			c-0.042-0.124-0.097-0.249-0.152-0.373c-0.083-0.194-0.166-0.401-0.263-0.595c-0.097-0.207-0.193-0.401-0.304-0.594
			c-0.097-0.194-0.208-0.388-0.318-0.567c-0.097-0.194-0.208-0.373-0.332-0.553c-0.111-0.194-0.235-0.373-0.359-0.567
			c-0.124-0.18-0.262-0.346-0.387-0.525c-0.069-0.097-0.152-0.194-0.235-0.291c-0.055-0.083-0.111-0.152-0.166-0.221
			c-0.097-0.124-0.193-0.235-0.304-0.346c-0.014-0.027-0.042-0.055-0.055-0.083L92.075,57.159z"/>
	</g>
	<g id="escrita_1_">
		<path fill="#FFFFFF" d="M109.208,44.401l0.044,1.959c0.691-1.492,2.25-2.072,3.652-2.072c0.822-0.02,1.624,0.202,2.359,0.646
			l-0.49,0.89c-0.579-0.356-1.224-0.511-1.869-0.511c-2.048,0.02-3.628,1.668-3.628,3.673v6.41h-1.091V44.401H109.208z"/>
		<path fill="#FFFFFF" d="M116.397,49.92c0-3.495,2.492-5.72,5.586-5.72s5.586,2.225,5.586,5.72c0,3.496-2.493,5.632-5.586,5.632
			S116.397,53.416,116.397,49.92z M126.501,49.92c0-2.848-2.026-4.694-4.518-4.694c-2.492,0-4.519,1.846-4.519,4.694
			c0,2.849,2.027,4.565,4.519,4.565C124.476,54.485,126.501,52.77,126.501,49.92z"/>
		<path fill="#FFFFFF" d="M146.377,55.397v-6.589c0-2.115-1.426-3.604-3.516-3.604c-2.092,0-3.541,1.556-3.541,3.672v6.522h-1.091
			v-6.522c0-2.116-1.447-3.649-3.539-3.649c-2.093,0-3.516,1.533-3.516,3.649v6.522h-1.091V44.401h1.023l0.023,1.825
			c0.757-1.446,2.158-2.047,3.584-2.047c1.671,0,3.427,0.756,4.072,2.715c0.668-1.803,2.384-2.715,4.075-2.715
			c2.692,0,4.606,1.891,4.606,4.629v6.589H146.377z"/>
		<path fill="#FFFFFF" d="M158.928,55.397v-1.981c-0.846,1.515-2.382,2.137-3.917,2.157c-2.938,0-4.964-1.801-4.964-4.85v-6.345
			h1.089v6.319c0,2.497,1.538,3.832,3.92,3.808c2.271-0.02,3.852-1.736,3.852-4.004v-6.123h1.089v11.019H158.928z"/>
		<path fill="#FFFFFF" d="M163.958,39.816v15.581h-1.091V39.816H163.958z"/>
		<path fill="#FFFFFF" d="M166.495,49.92c0-3.495,2.493-5.72,5.585-5.72c3.095,0,5.588,2.225,5.588,5.72
			c0,3.496-2.493,5.632-5.588,5.632C168.988,55.553,166.495,53.416,166.495,49.92z M176.599,49.92c0-2.848-2.023-4.694-4.519-4.694
			c-2.493,0-4.518,1.846-4.518,4.694c0,2.849,2.025,4.565,4.518,4.565C174.576,54.485,176.599,52.77,176.599,49.92z"/>
		<path fill="#FFFFFF" d="M187.147,55.397v-5.874c0-1.45-0.754-2.764-2.248-2.764c-1.47,0-2.337,1.314-2.337,2.764v5.874h-2.714
			V44.401h2.515l0.2,1.337c0.578-1.114,1.848-1.515,2.894-1.515c1.315,0,2.628,0.534,3.251,2.049
			c0.978-1.56,2.248-2.003,3.671-2.003c3.115,0,4.654,1.914,4.654,5.21v5.918h-2.717v-5.918c0-1.451-0.602-2.674-2.07-2.674
			c-1.467,0-2.38,1.269-2.38,2.719v5.874H187.147z"/>
		<path fill="#FFFFFF" d="M210.695,49.92c0,3.161-2.157,5.723-5.72,5.723c-3.561,0-5.697-2.562-5.697-5.723
			c0-3.137,2.18-5.72,5.674-5.72C208.448,44.201,210.695,46.784,210.695,49.92z M201.992,49.92c0,1.671,1.003,3.23,2.983,3.23
			c1.983,0,2.982-1.559,2.982-3.23c0-1.646-1.157-3.25-2.982-3.25C203.015,46.671,201.992,48.274,201.992,49.92z"/>
		<path fill="#FFFFFF" d="M215.345,44.423v5.743c0,1.669,0.913,2.938,2.65,2.938c1.671,0,2.803-1.404,2.803-3.072v-5.609h2.694
			v10.995h-2.425l-0.178-1.49c-1.135,1.114-2.183,1.646-3.717,1.646c-2.628,0-4.539-1.98-4.539-5.387v-5.763H215.345z"/>
		<path fill="#FFFFFF" d="M228.409,44.423l0.2,1.269c0.846-1.359,1.982-1.558,3.095-1.558c1.134,0,2.226,0.444,2.825,1.044
			l-1.222,2.359c-0.559-0.466-1.069-0.71-1.96-0.71c-1.424,0-2.738,0.755-2.738,2.78v5.789h-2.713V44.423H228.409z"/>
		<path fill="#FFFFFF" d="M244.255,44.423h2.606v10.974h-2.561l-0.132-1.604c-0.625,1.294-2.34,1.917-3.562,1.937
			c-3.25,0.024-5.655-1.977-5.655-5.83c0-3.785,2.517-5.765,5.723-5.744c1.467,0,2.87,0.691,3.495,1.781L244.255,44.423z
			 M237.645,41.463c0.536-1.314,1.404-2.249,2.873-1.915c1.044,0.244,2.07,1.402,2.76,0.022l1.78,0.845
			c-0.646,1.716-1.76,2.227-2.805,1.958c-1.091-0.31-2.049-1.624-2.917,0L237.645,41.463z M237.667,49.9
			c0,2.092,1.447,3.337,3.25,3.337c4.276,0,4.276-6.654,0-6.654C239.114,46.583,237.667,47.807,237.667,49.9z"/>
		<path fill="#FFFFFF" d="M260.058,49.92c0,3.161-2.157,5.723-5.719,5.723c-3.563,0-5.699-2.562-5.699-5.723
			c0-3.137,2.18-5.72,5.674-5.72C257.81,44.201,260.058,46.784,260.058,49.92z M251.353,49.92c0,1.671,1.004,3.23,2.986,3.23
			s2.98-1.559,2.98-3.23c0-1.646-1.157-3.25-2.98-3.25C252.377,46.671,251.353,48.274,251.353,49.92z"/>
	</g>
</g>
</svg>
